<?xml version="1.0" encoding="UTF-8" standalone="no"?>
<!DOCTYPE svg PUBLIC "-//W3C//DTD SVG 1.1//EN" "http://www.w3.org/Graphics/SVG/1.1/DTD/svg11.dtd">
<svg width="100%" height="100%" viewBox="0 0 1254 375" version="1.1" xmlns="http://www.w3.org/2000/svg" xmlns:xlink="http://www.w3.org/1999/xlink" xml:space="preserve" xmlns:serif="http://www.serif.com/" style="fill-rule:evenodd;clip-rule:evenodd;stroke-linejoin:round;stroke-miterlimit:2;">
    <g transform="matrix(1,0,0,1,-613.364034,-1628.900014)">
        <g>
            <g transform="matrix(1.625977,0,0,1.625977,456.303714,1109.097078)">
                <path d="M708.978,475.014C699.038,475.019 677.529,476.335 674.056,472.742C672.491,471.123 674.063,469.108 670.477,468.848C667.601,468.64 647.499,468.704 645.501,468.71C630.462,468.758 630.332,468.918 629.63,469.638C628.169,471.137 604.451,522.544 600.923,529.707C597.757,536.136 597.749,538.427 594.528,538.84C594.111,538.893 544.396,538.928 538.492,538.861C533.83,538.809 534.47,536.234 529.744,528.357C525.51,521.3 525.794,521.153 525.423,520.542C520.761,512.861 521.282,512.574 517.205,506.668C516.564,505.738 516.642,505.713 516.091,504.721C516.011,504.578 515.819,504.518 515.742,504.373C515.466,503.85 515.314,503.268 515.044,502.742C513.536,499.803 513.464,499.842 513.368,499.571C513.286,499.34 512.368,496.754 512.293,496.694C512.252,496.662 510.577,496.514 510.532,496.538C510.018,496.812 509.827,499.858 507.759,503.623C501.244,515.489 497.422,522.255 488.084,530.021C483.793,533.589 476.678,537.111 475.492,537.481C471.429,538.75 471.272,539.526 467.464,540.363C460.06,541.993 460.085,542.226 452.497,542.405C450.482,542.452 436.963,542.77 427.455,539.651C413.33,535.017 407.67,528.646 402.802,524.193C397.914,519.722 392.788,509.829 390.955,507.324C390.129,506.194 388.763,504.327 383.303,491.583C376.803,476.41 373.005,475.187 366.535,474.233L363.906,473.259C363.756,472.929 362.338,469.818 361.75,469.27C360.199,467.826 354.033,468.191 353.49,468.257C346.22,469.139 344.189,470.014 343.435,470.339C340.078,471.785 340.142,472.015 336.5,472.497C333.006,472.723 333.024,472.715 329.543,472.892C328.011,473.168 328.031,473.129 326.484,473.413C319.969,474.608 319.623,476.205 313.806,473.082C313.18,471.3 313.166,471.329 312.393,469.584C311.822,469.308 312.024,468.368 307.506,468.698C300.439,469.215 299.27,468.526 293.692,470.86C292.005,471.566 290.093,473.248 289.56,473.578C289.315,473.731 288.2,474.423 286.536,475.551C286.277,475.708 285.939,475.701 285.68,475.858C284.897,476.331 285.268,476.557 285.085,478.328C285.012,478.749 284.56,479.621 284.804,481.486C285.263,485.002 284.83,485.02 285.381,488.505C286.272,494.137 285.928,494.156 285.16,504.451C284.409,514.527 278.064,529.25 269.377,535.352C262.121,540.448 261.041,541.46 250.406,544.127C248.333,544.647 248.373,545.597 214.5,545.644C190.539,545.677 170.871,545.72 165.466,544.959C152.726,543.164 150.233,541.423 148.42,540.693C139.914,537.266 137.589,533.917 134.026,529.911C125.199,519.986 123.248,508.081 123.097,507.584C119.997,497.338 121.883,495.867 121.168,493.503C121.086,493.233 120.559,493.302 120.715,488.51C120.77,486.797 123.123,481.17 120.542,477.468C120.279,477.091 119.962,476.753 119.72,476.362C119.05,475.282 118.587,474.536 118.683,460.507C118.712,456.237 121.751,456.729 120.893,452.537C120.401,450.134 121.157,414.706 120.445,412.529C119.972,411.082 115.718,410.711 115.684,405.498C115.6,392.485 115.911,392.454 115.259,389.842L113.522,389.186C113.146,388.948 112.937,388.498 112.561,388.26C112.486,388.212 102.469,355.231 100.915,349.046C99.201,342.218 204.644,344.539 208.785,347.723C210.694,349.191 198.178,383.305 197.734,391.515C197.683,392.445 195.755,393.334 195.727,394.182C195.469,401.914 196.309,407.245 196.151,409.708C196.029,411.603 195.445,411.415 192.53,411.684C189.843,411.931 190.556,415.157 190.559,415.5C190.612,420.519 190.354,420.727 190.346,423.501C190.29,442.822 190.546,445.271 190.643,452.499C190.693,456.216 191.885,456.848 192.297,457.605C192.924,458.757 193.643,459.167 193.122,472.49C192.885,478.543 189.547,477.99 189.929,481.469C190.286,484.716 193.226,484.165 195.503,484.18C205.022,484.243 204.996,484.337 214.5,484.49C218.897,484.561 217.861,479.16 216.337,477.665C215.366,476.713 215.461,476.66 214.788,475.489C214.798,475.16 214.585,474.85 214.596,474.521C214.623,473.654 215.21,473.688 215.613,472.545C215.992,471.469 216.323,466.051 216.358,465.484C216.575,461.942 219.144,452.191 220.903,447.664C220.952,447.537 221.135,447.5 221.192,447.377C221.586,446.52 221.292,446.433 221.74,445.609C221.813,445.474 222.016,445.441 222.085,445.304C222.994,443.499 222.845,443.459 223.75,441.626C223.82,441.483 224.02,441.436 224.098,441.297C224.54,440.508 224.262,440.401 224.743,439.627C224.831,439.484 225.044,439.447 225.125,439.3C225.406,438.784 225.527,438.191 225.808,437.674C225.891,437.522 226.115,437.482 226.197,437.329C226.472,436.819 226.58,436.229 226.861,435.721C226.951,435.56 227.178,435.515 227.286,435.365C227.451,435.136 227.495,434.832 227.666,434.608C227.784,434.452 228.028,434.419 228.132,434.254C228.431,433.784 228.554,433.217 228.847,432.743C228.951,432.575 229.184,432.521 229.301,432.362C229.465,432.139 229.506,431.841 229.673,431.62C229.795,431.459 230.025,431.405 230.147,431.245C230.313,431.027 230.344,430.725 230.517,430.513C230.652,430.346 230.906,430.309 231.043,430.144C231.213,429.937 231.283,429.665 231.411,429.429C231.788,428.73 231.893,428.831 232.318,428.349C233.646,426.846 233.578,426.801 233.697,426.675C235.395,424.879 235.4,424.921 237.202,423.22C237.38,423.052 237.452,422.786 237.641,422.629C238.222,422.147 238.265,422.262 238.871,421.83C239.738,421.212 239.678,421.183 240.517,420.519C241.935,419.397 241.97,419.471 243.405,418.378C247.386,415.346 247.579,415.656 251.594,412.675C253.422,411.319 254.391,411.555 255.674,410.865C258.117,409.551 268.506,405.323 276.483,404.403C288.482,403.019 288.469,402.967 289.516,402.888C294.528,402.511 295.475,403.988 300.679,398.764C302.4,397.036 307.167,393.861 310.304,392.172C315.128,389.576 316.651,388.031 319.627,386.734C327.919,383.12 327.877,383.058 328.598,382.746C331.51,381.484 331.632,381.876 334.541,380.619C341.609,377.565 343.201,377.851 350.491,375.458C356.978,373.329 375.137,373.013 382.508,375.462C384.475,376.115 384.503,375.914 386.502,376.491C386.89,376.602 391.204,377.847 391.343,377.908C396.676,380.256 403.845,383.416 410.025,389.951C412.764,392.848 418.731,400.864 419.476,402.514C421.406,406.791 422.072,406.643 422.554,407.207L423.486,407.341C424.597,407.62 424.581,407.828 426.489,407.879C440.015,408.246 442.059,408.854 445.49,408.899C459.565,409.085 464.82,408.783 466.498,408.687L468.614,408.198C468.988,408.06 469.41,408.952 470.501,407.501C470.564,407.417 470.506,407.412 471.097,406.333C472.304,404.134 473.389,400.652 474.04,399.294C474.727,397.858 476.772,392.799 477.066,392.298C478.43,389.978 478.048,389.81 479.398,387.455C480.714,385.16 480.319,384.882 482.021,382.232C483.184,380.422 484.223,377.567 484.794,376.663C490.744,367.236 490.583,367.151 492.182,365.251C496.826,359.73 496.781,359.7 497.204,359.238C506.712,348.83 514.05,345.792 518.559,342.606C520.472,341.254 520.631,341.582 522.47,340.441C525.569,338.52 525.702,338.554 532.372,336.168C534.749,335.317 536.356,334.066 538.525,333.563C542.553,332.63 542.365,331.984 546.435,331.276C548.785,330.867 549.982,329.947 551.532,329.615C556.137,328.63 556.077,328.468 556.481,328.411C560.298,327.87 561.181,327.039 567.436,326.146C574.587,325.125 574.652,325.776 579.493,324.7C586.173,323.352 590.333,324.703 595.51,324.194C602.798,323.477 602.715,324.81 609.524,325.336C611.032,325.453 611.006,325.426 612.495,325.538C614.871,325.715 615.222,326.138 616.53,326.364C630.697,328.805 636.48,333.13 638.702,334.087C645.136,336.857 645.161,336.794 645.715,337.045C653.508,340.573 653.554,340.393 661.512,343.462C664.083,344.453 674.057,347.105 675.545,347.306C679.209,347.801 679.165,347.917 682.62,349.244C683.423,349.552 688.133,351.361 689.514,357.496C690.577,362.216 690.218,362.262 689.525,365.506C687.949,372.878 686.008,373.3 681.557,381.538C678.752,386.93 680.034,387.509 676.857,392.674C674.321,396.665 673.996,397.136 673.8,397.468C673.524,397.688 672.388,398.575 672.09,398.582C671.507,398.595 667.371,399.967 667.371,399.967C667.371,399.967 604.138,398.857 585.064,398.787C572.215,396.647 567.986,397.256 566.496,397.471C555.299,399.085 552.156,401.801 549.335,403.303C549.123,403.415 547.118,404.482 546.996,405.186C546.963,405.375 547.269,405.456 547.386,405.608C547.488,405.741 547.489,405.986 547.648,406.035C547.836,406.093 547.839,405.94 551.475,405.911C553.237,405.897 553.225,405.914 573.5,405.929C587.324,405.938 591.11,407.226 593.53,405.537C593.721,405.404 593.841,405.185 594.032,405.051C594.155,404.849 595.059,403.357 595.671,402.583L595.684,402.567C622.603,402.911 674.254,403.908 674.523,403.378C675.176,402.093 676.507,400.288 676.724,399.996C676.923,399.912 676.72,399.83 676.754,399.826C678.602,396.689 682.096,396.711 683.488,396.436C683.809,396.373 683.802,396.387 686.447,396.129C687.758,396.001 688.421,395.645 688.515,395.63C689.534,395.462 689.511,395.854 690.552,395.795C692.099,395.707 706.171,395.52 710.912,395.13C711.387,376.799 711.761,362.486 711.759,362.223C711.643,346.892 711.317,344.162 717.266,342.987C720.598,342.329 798.526,342.681 805.592,342.712C821.701,342.785 822.164,342.313 825.299,345.168C833.867,352.97 836.593,355.823 837.525,356.799C846.955,366.671 848.851,367.221 856.229,375.927C859.733,380.062 862.942,381.002 862.943,387.451C862.95,424.672 863.176,424.637 863.253,461.871C863.349,508.669 862.983,518.873 863.019,528.729C863.059,539.918 864.003,545.48 856.067,545.624C852.138,545.696 791.063,545.634 785.41,545.628C732.144,545.574 715.846,545.703 714.732,545.568C709.878,544.981 708.899,540.043 709.142,537.556C709.636,532.513 709.648,532.528 709.168,527.46C709.114,526.891 709.097,513.56 709.177,512.327C709.371,509.322 709.224,509.315 708.978,475.014ZM434.387,428.311L435.464,429.193C442.359,429.374 455.791,429.306 458.511,429.178L459.62,428.194C459.927,428.22 460.193,428.45 460.5,428.476C461.768,428.583 462.432,426.88 462.612,426.547C465.14,421.875 465.258,421.93 465.368,421.482C465.43,421.229 465.138,420.998 465.134,420.738C465.129,420.451 465.513,420.134 465.343,419.904C465.205,419.718 465.112,419.593 462.529,420.592C462.199,420.464 462.164,419.837 460.501,419.805C450.996,419.623 451,420.043 441.504,419.421C440.947,419.384 435.017,418.995 434.534,419.139C433.878,419.334 434.03,419.58 433.399,419.808C432.898,419.99 432.874,419.74 432.377,419.92C430.178,419.587 429.712,419.433 429.488,419.359C429.172,419.255 428.884,418.933 428.557,418.995C428.202,419.062 428.082,419.625 427.727,419.692C427.838,419.929 427.627,420.24 427.737,420.478C428.488,422.088 428.937,421.799 429.628,423.443C431.677,428.314 432.027,428.426 432.474,428.57C433.12,428.778 433.453,428.733 433.538,428.722C434.032,428.655 433.905,428.376 434.387,428.311Z" style="fill:none;stroke:white;stroke-width:8.6px;"/>
                <path d="M708.978,475.014C699.038,475.019 677.529,476.335 674.056,472.742C672.491,471.123 674.063,469.108 670.477,468.848C667.601,468.64 647.499,468.704 645.501,468.71C630.462,468.758 630.332,468.918 629.63,469.638C628.169,471.137 604.451,522.544 600.923,529.707C597.757,536.136 597.749,538.427 594.528,538.84C594.111,538.893 544.396,538.928 538.492,538.861C533.83,538.809 534.47,536.234 529.744,528.357C525.51,521.3 525.794,521.153 525.423,520.542C520.761,512.861 521.282,512.574 517.205,506.668C516.564,505.738 516.642,505.713 516.091,504.721C516.011,504.578 515.819,504.518 515.742,504.373C515.466,503.85 515.314,503.268 515.044,502.742C513.536,499.803 513.464,499.842 513.368,499.571C513.286,499.34 512.368,496.754 512.293,496.694C512.252,496.662 510.577,496.514 510.532,496.538C510.018,496.812 509.827,499.858 507.759,503.623C501.244,515.489 497.422,522.255 488.084,530.021C483.793,533.589 476.678,537.111 475.492,537.481C471.429,538.75 471.272,539.526 467.464,540.363C460.06,541.993 460.085,542.226 452.497,542.405C450.482,542.452 436.963,542.77 427.455,539.651C413.33,535.017 407.67,528.646 402.802,524.193C397.914,519.722 392.788,509.829 390.955,507.324C390.129,506.194 388.763,504.327 383.303,491.583C376.803,476.41 373.005,475.187 366.535,474.233L363.906,473.259C363.756,472.929 362.338,469.818 361.75,469.27C360.199,467.826 354.033,468.191 353.49,468.257C346.22,469.139 344.189,470.014 343.435,470.339C340.078,471.785 340.142,472.015 336.5,472.497C333.006,472.723 333.024,472.715 329.543,472.892C328.011,473.168 328.031,473.129 326.484,473.413C319.969,474.608 319.623,476.205 313.806,473.082C313.18,471.3 313.166,471.329 312.393,469.584C311.822,469.308 312.024,468.368 307.506,468.698C300.439,469.215 299.27,468.526 293.692,470.86C292.005,471.566 290.093,473.248 289.56,473.578C289.315,473.731 288.2,474.423 286.536,475.551C286.277,475.708 285.939,475.701 285.68,475.858C284.897,476.331 285.268,476.557 285.085,478.328C285.012,478.749 284.56,479.621 284.804,481.486C285.263,485.002 284.83,485.02 285.381,488.505C286.272,494.137 285.928,494.156 285.16,504.451C284.409,514.527 278.064,529.25 269.377,535.352C262.121,540.448 261.041,541.46 250.406,544.127C248.333,544.647 248.373,545.597 214.5,545.644C190.539,545.677 170.871,545.72 165.466,544.959C152.726,543.164 150.233,541.423 148.42,540.693C139.914,537.266 137.589,533.917 134.026,529.911C125.199,519.986 123.248,508.081 123.097,507.584C119.997,497.338 121.883,495.867 121.168,493.503C121.086,493.233 120.559,493.302 120.715,488.51C120.77,486.797 123.123,481.17 120.542,477.468C120.279,477.091 119.962,476.753 119.72,476.362C119.05,475.282 118.587,474.536 118.683,460.507C118.712,456.237 121.751,456.729 120.893,452.537C120.401,450.134 121.157,414.706 120.445,412.529C119.972,411.082 115.718,410.711 115.684,405.498C115.6,392.485 115.911,392.454 115.259,389.842L113.522,389.186C113.146,388.948 112.937,388.498 112.561,388.26C112.486,388.212 102.469,355.231 100.915,349.046C99.201,342.218 204.644,344.539 208.785,347.723C210.694,349.191 198.178,383.305 197.734,391.515C197.683,392.445 195.755,393.334 195.727,394.182C195.469,401.914 196.309,407.245 196.151,409.708C196.029,411.603 195.445,411.415 192.53,411.684C189.843,411.931 190.556,415.157 190.559,415.5C190.612,420.519 190.354,420.727 190.346,423.501C190.29,442.822 190.546,445.271 190.643,452.499C190.693,456.216 191.885,456.848 192.297,457.605C192.924,458.757 193.643,459.167 193.122,472.49C192.885,478.543 189.547,477.99 189.929,481.469C190.286,484.716 193.226,484.165 195.503,484.18C205.022,484.243 204.996,484.337 214.5,484.49C218.897,484.561 217.861,479.16 216.337,477.665C215.366,476.713 215.461,476.66 214.788,475.489C214.798,475.16 214.585,474.85 214.596,474.521C214.623,473.654 215.21,473.688 215.613,472.545C215.992,471.469 216.323,466.051 216.358,465.484C216.575,461.942 219.144,452.191 220.903,447.664C220.952,447.537 221.135,447.5 221.192,447.377C221.586,446.52 221.292,446.433 221.74,445.609C221.813,445.474 222.016,445.441 222.085,445.304C222.994,443.499 222.845,443.459 223.75,441.626C223.82,441.483 224.02,441.436 224.098,441.297C224.54,440.508 224.262,440.401 224.743,439.627C224.831,439.484 225.044,439.447 225.125,439.3C225.406,438.784 225.527,438.191 225.808,437.674C225.891,437.522 226.115,437.482 226.197,437.329C226.472,436.819 226.58,436.229 226.861,435.721C226.951,435.56 227.178,435.515 227.286,435.365C227.451,435.136 227.495,434.832 227.666,434.608C227.784,434.452 228.028,434.419 228.132,434.254C228.431,433.784 228.554,433.217 228.847,432.743C228.951,432.575 229.184,432.521 229.301,432.362C229.465,432.139 229.506,431.841 229.673,431.62C229.795,431.459 230.025,431.405 230.147,431.245C230.313,431.027 230.344,430.725 230.517,430.513C230.652,430.346 230.906,430.309 231.043,430.144C231.213,429.937 231.283,429.665 231.411,429.429C231.788,428.73 231.893,428.831 232.318,428.349C233.646,426.846 233.578,426.801 233.697,426.675C235.395,424.879 235.4,424.921 237.202,423.22C237.38,423.052 237.452,422.786 237.641,422.629C238.222,422.147 238.265,422.262 238.871,421.83C239.738,421.212 239.678,421.183 240.517,420.519C241.935,419.397 241.97,419.471 243.405,418.378C247.386,415.346 247.579,415.656 251.594,412.675C253.422,411.319 254.391,411.555 255.674,410.865C258.117,409.551 268.506,405.323 276.483,404.403C288.482,403.019 288.469,402.967 289.516,402.888C294.528,402.511 295.475,403.988 300.679,398.764C302.4,397.036 307.167,393.861 310.304,392.172C315.128,389.576 316.651,388.031 319.627,386.734C327.919,383.12 327.877,383.058 328.598,382.746C331.51,381.484 331.632,381.876 334.541,380.619C341.609,377.565 343.201,377.851 350.491,375.458C356.978,373.329 375.137,373.013 382.508,375.462C384.475,376.115 384.503,375.914 386.502,376.491C386.89,376.602 391.204,377.847 391.343,377.908C396.676,380.256 403.845,383.416 410.025,389.951C412.764,392.848 418.731,400.864 419.476,402.514C421.406,406.791 422.072,406.643 422.554,407.207L423.486,407.341C424.597,407.62 424.581,407.828 426.489,407.879C440.015,408.246 442.059,408.854 445.49,408.899C459.565,409.085 464.82,408.783 466.498,408.687L468.614,408.198C468.988,408.06 469.41,408.952 470.501,407.501C470.564,407.417 470.506,407.412 471.097,406.333C472.304,404.134 473.389,400.652 474.04,399.294C474.727,397.858 476.772,392.799 477.066,392.298C478.43,389.978 478.048,389.81 479.398,387.455C480.714,385.16 480.319,384.882 482.021,382.232C483.184,380.422 484.223,377.567 484.794,376.663C490.744,367.236 490.583,367.151 492.182,365.251C496.826,359.73 496.781,359.7 497.204,359.238C506.712,348.83 514.05,345.792 518.559,342.606C520.472,341.254 520.631,341.582 522.47,340.441C525.569,338.52 525.702,338.554 532.372,336.168C534.749,335.317 536.356,334.066 538.525,333.563C542.553,332.63 542.365,331.984 546.435,331.276C548.785,330.867 549.982,329.947 551.532,329.615C556.137,328.63 556.077,328.468 556.481,328.411C560.298,327.87 561.181,327.039 567.436,326.146C574.587,325.125 574.652,325.776 579.493,324.7C586.173,323.352 590.333,324.703 595.51,324.194C602.798,323.477 602.715,324.81 609.524,325.336C611.032,325.453 611.006,325.426 612.495,325.538C614.871,325.715 615.222,326.138 616.53,326.364C630.697,328.805 636.48,333.13 638.702,334.087C645.136,336.857 645.161,336.794 645.715,337.045C653.508,340.573 653.554,340.393 661.512,343.462C664.083,344.453 674.057,347.105 675.545,347.306C679.209,347.801 679.165,347.917 682.62,349.244C683.423,349.552 688.133,351.361 689.514,357.496C690.577,362.216 690.218,362.262 689.525,365.506C687.949,372.878 686.008,373.3 681.557,381.538C678.752,386.93 680.034,387.509 676.857,392.674C674.321,396.665 673.996,397.136 673.8,397.468C673.524,397.688 672.388,398.575 672.09,398.582C671.507,398.595 667.371,399.967 667.371,399.967C667.371,399.967 604.138,398.857 585.064,398.787C572.215,396.647 567.986,397.256 566.496,397.471C555.299,399.085 552.156,401.801 549.335,403.303C549.123,403.415 547.118,404.482 546.996,405.186C546.963,405.375 547.269,405.456 547.386,405.608C547.488,405.741 547.489,405.986 547.648,406.035C547.836,406.093 547.839,405.94 551.475,405.911C553.237,405.897 553.225,405.914 573.5,405.929C587.324,405.938 591.11,407.226 593.53,405.537C593.721,405.404 593.841,405.185 594.032,405.051C594.155,404.849 595.059,403.357 595.671,402.583L595.684,402.567C622.603,402.911 674.254,403.908 674.523,403.378C675.176,402.093 676.507,400.288 676.724,399.996C676.923,399.912 676.72,399.83 676.754,399.826C678.602,396.689 682.096,396.711 683.488,396.436C683.809,396.373 683.802,396.387 686.447,396.129C687.758,396.001 688.421,395.645 688.515,395.63C689.534,395.462 689.511,395.854 690.552,395.795C692.099,395.707 706.171,395.52 710.912,395.13C711.387,376.799 711.761,362.486 711.759,362.223C711.643,346.892 711.317,344.162 717.266,342.987C720.598,342.329 798.526,342.681 805.592,342.712C821.701,342.785 822.164,342.313 825.299,345.168C833.867,352.97 836.593,355.823 837.525,356.799C846.955,366.671 848.851,367.221 856.229,375.927C859.733,380.062 862.942,381.002 862.943,387.451C862.95,424.672 863.176,424.637 863.253,461.871C863.349,508.669 862.983,518.873 863.019,528.729C863.059,539.918 864.003,545.48 856.067,545.624C852.138,545.696 791.063,545.634 785.41,545.628C732.144,545.574 715.846,545.703 714.732,545.568C709.878,544.981 708.899,540.043 709.142,537.556C709.636,532.513 709.648,532.528 709.168,527.46C709.114,526.891 709.097,513.56 709.177,512.327C709.371,509.322 709.224,509.315 708.978,475.014ZM434.387,428.311L435.464,429.193C442.359,429.374 455.791,429.306 458.511,429.178L459.62,428.194C459.927,428.22 460.193,428.45 460.5,428.476C461.768,428.583 462.432,426.88 462.612,426.547C465.14,421.875 465.258,421.93 465.368,421.482C465.43,421.229 465.138,420.998 465.134,420.738C465.129,420.451 465.513,420.134 465.343,419.904C465.205,419.718 465.112,419.593 462.529,420.592C462.199,420.464 462.164,419.837 460.501,419.805C450.996,419.623 451,420.043 441.504,419.421C440.947,419.384 435.017,418.995 434.534,419.139C433.878,419.334 434.03,419.58 433.399,419.808C432.898,419.99 432.874,419.74 432.377,419.92C430.178,419.587 429.712,419.433 429.488,419.359C429.172,419.255 428.884,418.933 428.557,418.995C428.202,419.062 428.082,419.625 427.727,419.692C427.838,419.929 427.627,420.24 427.737,420.478C428.488,422.088 428.937,421.799 429.628,423.443C431.677,428.314 432.027,428.426 432.474,428.57C433.12,428.778 433.453,428.733 433.538,428.722C434.032,428.655 433.905,428.376 434.387,428.311Z" style="fill:rgb(23,24,23);fill-opacity:0.99;"/>
            </g>
            <g transform="matrix(2.050993,0,0,2.050993,194.092974,893.04512)">
                <path d="M738.511,527.243C726.443,526.871 706.07,527.237 701.445,526.949C698.266,526.75 698.876,523.878 698.876,521.499C698.873,449.737 698.505,389.471 698.825,386.53C699.158,383.466 701.832,384.165 706.495,384.119C716.612,384.021 764.349,383.994 764.512,384.002C773.423,384.403 773.807,383.718 774.958,385.184C775.996,386.507 775.317,407.114 775.808,415.451C775.981,418.382 779.407,417.874 781.502,417.866C799.239,417.801 801.333,417.57 802.644,418.296C803.755,418.911 803.674,420.631 803.676,432.5C803.685,522.766 803.693,522.764 803.58,524.509C803.362,527.901 799.742,526.942 797.498,526.992C787.796,527.212 773.925,527.029 770.484,527.263C764.298,527.684 764.305,528.11 738.511,527.243ZM789.496,489.83C788.219,489.826 775.052,489.779 773.526,489.88C769.564,490.141 770.365,493.377 772.436,493.764C772.915,493.854 791.04,493.825 791.531,493.788C795.031,493.524 794.635,489.979 791.474,489.859C790.815,489.833 790.155,489.855 789.496,489.83ZM760.484,428.944C760.661,428.919 763.586,429.193 765.165,426.336C766.097,424.65 765.051,423.149 767.65,420.655C770.014,418.387 772.686,417.124 772.551,413.489C772.481,411.607 771.616,410.967 770.444,412.421C768.697,414.587 764.379,418.991 762.472,419.338C758.954,419.978 757.19,418.767 751.438,413.568C749.207,411.551 749.437,411.35 748.662,408.456C747.27,403.256 739.036,403.305 738.66,409.507C738.528,411.694 738.901,412.053 733.632,417.627C732.872,418.43 731.865,420.1 728.488,420.14C726.114,420.169 725.059,419.005 721.477,416.53C717.89,414.052 720.344,411.655 716.349,409.874C716.101,409.763 710.87,408.133 709.861,413.552C709.418,415.93 709.457,416.018 707.734,417.727C704.825,420.613 708.592,421.319 709.384,421.049C710.263,420.749 713.699,417.345 717.448,418.639C718.189,418.895 723.483,422.483 724.219,423.678C724.511,424.153 725.745,430.849 731.457,429.354C735.92,428.186 733.925,423.689 735.995,420.86C736.364,420.355 739.146,416.553 741.183,415.007C742.69,413.863 745.779,414.323 746.441,414.642C747.309,415.062 754.151,420.493 755.11,422.648C755.325,423.131 755.502,425.781 756.773,427.264C758.149,428.87 758.399,428.509 760.484,428.944ZM716.675,508.327C718.986,510.565 719.764,511.223 721.769,508.732C724.152,505.772 732.685,493.844 732.755,493.55C733.317,491.194 731.91,491.809 729.502,491.896C721.624,492.179 711.035,492.233 710.349,493.358C710.062,493.83 708.989,495.344 711.797,501.359C713.409,504.812 716.212,507.828 716.675,508.327ZM776.503,477.764C774.319,477.783 771.457,477.564 770.528,478.523C770.083,478.981 769.418,481.464 772.483,481.649C773.922,481.736 774.16,481.75 790.503,481.691C790.776,481.69 793.278,481.681 793.757,480.632C794.937,478.048 791.773,477.798 791.481,477.775C790.153,477.67 777.701,477.756 776.503,477.764ZM787.497,465.729C786.219,465.712 775.072,465.563 771.521,465.727C768.594,465.862 768.205,469.276 771.487,469.602C773.506,469.803 788.983,469.724 790.504,469.716C790.841,469.714 794.647,469.695 794.108,467.534C793.55,465.304 790.017,465.762 787.497,465.729ZM746.567,464.313C743.046,463.123 743.068,463.091 742.429,462.956C742.199,462.907 740.398,462.527 739.992,464.594C739.965,464.734 740.055,476.474 740.063,477.507C740.135,486.951 739.817,487.701 741.523,488.457C742.58,488.925 754.243,491.829 756.53,492.371C762.028,493.673 764.653,495.243 764.681,490.505C764.727,482.602 762.971,477.484 757.912,472.115C752.514,466.387 749.41,465.491 746.567,464.313ZM732.507,464.624C725.28,465.258 722.386,467.516 717.471,471.468C711.803,476.026 707.461,488.237 710.642,489.116C711.471,489.344 734.264,488.513 734.485,488.456C736.896,487.825 736.72,486.641 736.664,470.5C736.663,469.985 736.745,466.42 736.337,465.605C735.625,464.186 733.05,464.611 732.507,464.624ZM736.497,443.146C742.389,443.099 790.829,443.126 791.467,443.075C794.853,442.809 794.363,439.752 792.611,439.216C791.361,438.834 713.846,439.022 710.476,439.157C706.309,439.324 706.979,442.541 709.558,443.053C710.099,443.16 734.342,443.147 736.497,443.146ZM776.495,502.17C775.427,502.188 771.703,501.897 771.1,503.302C769.894,506.111 774.153,506.162 774.509,506.166C775.33,506.176 791.869,506.195 792.395,506.03C794.419,505.397 795.126,502.39 791.527,502.186C789.977,502.098 777.698,502.164 776.495,502.17ZM747.604,514.785C757.304,510.791 761.519,502.787 762.26,501.381C764.234,497.633 762.164,497.374 759.447,496.701C758.972,496.583 740.763,491.913 740.457,491.853C738.282,491.427 737.276,492.912 735.44,495.451C723.929,511.371 723.541,511.285 723.591,512.473C723.607,512.856 723.643,513.734 727.657,515.018C738.632,518.53 746.429,515.145 747.604,514.785ZM789.501,455.077L792.391,455C794.457,454.337 794.929,451.282 791.559,451.036C790.516,450.96 769.601,451.17 755.5,450.953C749.375,450.859 726.981,450.929 724.501,450.937C719.054,450.954 709.854,451.11 709.421,451.196C707.645,451.551 705.983,454.711 710.463,454.999C711.277,455.051 744.538,455.08 747.501,455.083L789.501,455.077ZM790.559,406.272C786.906,405.24 786.925,405.26 786.613,405.157C782.017,403.642 782.623,401.983 782.289,396.509C782.118,393.709 781.695,393.185 781.64,392.511C781.496,390.74 782.318,390.137 783.544,391.402C784.373,392.257 788.726,396.751 794.11,401.896C797.7,405.327 798.295,405.107 798.19,406.473C798.045,408.367 793.371,406.884 790.559,406.272Z" style="fill:rgb(247,248,248);fill-opacity:1;"/>
            </g>
            <g transform="matrix(1.625977,0,0,1.625977,456.303714,1109.097078)">
                <path d="M607.491,410.608C617.382,410.724 627.737,410.289 641.501,410.45C646.196,410.505 647.431,410.078 647.505,411.499C647.564,412.65 647.104,412.49 644.261,416.328C638.207,424.5 631.499,438.05 624.105,452.3C621.555,457.216 604.435,492.24 592.761,515.627C588.303,524.557 588.565,526.615 584.506,526.69C582.513,526.727 552.3,526.713 549.499,526.712C545.9,526.71 546.122,525.596 543.08,519.712C532.47,499.194 515.267,465.066 512.866,460.305C503.594,441.911 503.971,439.846 508.186,428.384C508.719,426.937 511.984,418.057 515.913,410.722C517.212,408.296 518.608,408.055 523.625,411.295C528.196,414.247 527.569,414.895 530.017,419.744C532.647,424.954 541.538,442.035 546.4,451.555C546.969,452.67 547,452.624 553.669,465.412C556.546,470.928 559.68,476.682 560.212,477.658C561.463,479.955 561.893,481.115 561.957,481.252C562.683,482.794 562.916,482.612 564.427,483.421C564.555,483.716 564.171,484.081 564.299,484.376C564.432,484.68 565.707,487.602 567.621,486.861C568.51,486.516 568.439,486.357 573.386,476.432C575.317,472.558 575.609,472.713 598.213,428.346C606.077,412.909 606.653,411.973 607.491,410.608Z" style="fill:rgb(243,138,25);"/>
            </g>
            <g transform="matrix(1.625977,0,0,1.625977,456.303714,1109.097078)">
                <path d="M248.518,476.954C250.364,476.895 268.957,476.3 271.597,477.259C272.218,477.485 273.569,477.397 273.666,485.496C273.707,488.901 273.602,492.06 273.328,495.013C272.412,504.843 240.638,505.074 243.38,495.013C244.262,491.774 244.764,487.954 245.038,483.483C245.344,478.48 242.6,479.467 241.504,479.547C241.994,479.139 242.079,479.304 242.557,478.906C243.121,478.438 242.931,478.279 243.543,477.853C244.137,477.44 248.116,476.999 248.518,476.954ZM237.529,479.617L236.754,480.73C235.835,483.551 236.079,483.587 235.784,486.533C235.527,489.108 234.789,491.23 233.741,492.982C229.402,500.232 222.207,493.487 223.173,492.797C227.027,490.043 226.954,484.848 227.191,481.468C227.388,478.662 228.68,478.564 233.478,478.275C237.104,478.056 236.959,479.25 237.529,479.617Z" style="fill:rgb(199,200,200);"/>
            </g>
            <g transform="matrix(1.625977,0,0,1.625977,456.303714,1109.097078)">
                <path d="M243.38,495.013C244.262,491.774 273.602,492.06 273.328,495.013C272.412,504.843 269.611,512.382 264.034,519.081C252.394,533.065 228.51,531.376 226.5,531.389C219.243,531.438 217.156,532.012 216.729,528.464C215.189,515.686 215.733,511.832 215.935,510.4C216.096,510.412 216.227,510.558 216.388,510.569C217.729,510.665 219.254,510.561 219.502,510.544C234.216,509.538 240.638,505.074 243.38,495.013ZM223.173,492.797C227.027,490.043 234.789,491.23 233.741,492.982C229.402,500.232 219.743,501.147 216.754,501.633C216.722,501.303 216.848,500.971 216.816,500.641C216.793,500.404 216.491,499.968 216.574,498.509C216.759,495.232 217.552,494.737 219.466,494.34C220.993,494.024 222.207,493.487 223.173,492.797Z" style="fill:rgb(2,106,200);"/>
            </g>
            <g transform="matrix(1.625977,0,0,1.625977,456.303714,1109.097078)">
                <path d="M138.522,475.633C139.09,475.782 139.657,475.93 140.225,476.079C138.763,490.706 143.76,504.445 150.861,510.074C152.357,511.26 160.473,517.694 173.507,517.592C173.76,517.59 176.251,517.57 176.476,516.491C177.149,513.261 173.937,516.1 164.451,510.579C161.236,508.708 153.746,502.224 151.293,489.543C151.111,488.599 150.128,483.521 150.089,477.587C150.082,476.524 150.003,476.549 149.458,475.636C149.775,475.616 150.085,475.777 150.402,475.756C150.817,475.73 150.802,475.242 159.495,475.624C168.421,476.017 170.039,475.848 170.154,478.505C170.375,483.575 169.342,493.225 177.578,499.369C179.628,500.899 181.274,500.948 180.658,498.449C180.198,496.586 175.34,495.371 174.671,480.495C174.431,475.164 177.956,477.283 178.331,478.562C179.224,481.611 177.39,488.439 182.872,493.098C185.683,495.488 183.883,496.291 184.287,516.505C184.535,528.864 186.067,531.463 182.498,531.376C179.281,531.297 171.451,530.687 170.491,530.612C159.703,529.771 139.616,527.949 132.492,496.502C131.447,491.889 130.316,477.903 131.61,476.608C132.834,475.382 136.673,475.656 138.522,475.633Z" style="fill:rgb(3,111,204);"/>
            </g>
            <g transform="matrix(1.625977,0,0,1.625977,456.303714,1109.097078)">
                <path d="M141.483,452.633C139.589,453.46 139.63,453.791 134.5,453.915C130.273,454.017 131.171,451.922 131.095,445.504C131.064,442.948 130.73,414.679 130.897,413.551C131.198,411.521 133.231,411.466 133.498,411.459C136.482,411.379 136.459,411.285 139.455,411.077C145.583,410.653 145.967,412.336 157.506,411.597C163.013,411.244 163.044,412.364 168.498,411.488C170.533,411.161 177.178,411.308 178.087,412.767C179.039,414.295 178.459,418.231 179.057,439.505C179.445,453.286 179.376,453.622 178.325,454.139C176.764,454.906 176.65,453.966 152.499,453.636C148.304,453.578 148.328,453.311 146.491,452.449C146.943,451.681 147.84,451.53 147.706,448.493C147.089,434.491 147.198,434.514 146.769,420.492C146.66,416.928 146.077,416.398 142.501,416.522C138.822,416.65 139.877,418.539 139.929,434.5C139.933,435.786 139.976,449.184 140.294,450.568C140.361,450.86 140.569,451.115 140.598,451.412C140.635,451.785 140.27,452.227 140.49,452.53C140.685,452.8 141.287,452.364 141.483,452.633Z" style="fill:rgb(2,109,203);"/>
            </g>
            <g transform="matrix(1.625977,0,0,1.625977,456.303714,1109.097078)">
                <path d="M287.853,413.117C288.849,414.018 289.144,425.459 289.211,443.502C289.235,449.828 285.514,446.858 279.368,450.238C277.735,451.137 272.335,452.585 266.922,463.698C266.748,464.056 265.508,466.602 265.275,468.394C265.239,468.669 265.374,468.948 265.339,469.223C264.906,469.353 265.047,469.803 263.508,469.772C261.825,469.738 226.539,470.849 226.44,470.842C224.433,470.696 225.359,467.786 226.176,464.425C227.623,458.474 227.472,458.431 230.25,451.401C233.446,443.311 234.712,442.141 238.415,436.443C238.944,435.63 245.033,427.627 254.571,421.61C265.847,414.496 285.658,411.13 287.853,413.117Z" style="fill:rgb(199,200,200);"/>
            </g>
            <g transform="matrix(1.625977,0,0,1.625977,456.303714,1109.097078)">
                <path d="M530.579,347.666C531.224,347.376 545.436,340.445 561.562,336.752C577.057,333.204 577.115,333.57 589.464,332.145C603.932,330.476 624.849,333.798 632.645,337.376C633.651,337.837 633.374,339.23 632.453,339.349C632.053,339.4 631.914,339.418 627.541,338.199C625.457,337.617 611.663,333.769 600.491,338.481C596.245,340.272 596.097,339.412 591.51,339.255C557.866,338.103 535.776,351.794 529.55,355.583C526.934,357.175 525.847,358.284 524.822,355.384C523.056,350.388 526.287,349.871 530.579,347.666ZM662.487,385.677C662.926,385.724 666.484,385.46 664.667,388.592C662.874,391.683 662.07,390.591 658.516,390.33C653.998,390 653.972,390.264 649.591,389.16C646.494,388.38 635.691,391.409 616.523,390.171C614.964,390.07 605.9,389.484 597.633,385.244C597.176,385.009 594.506,383.919 597.812,380.822C600.737,378.082 601.225,380.678 616.546,384.291C620.341,385.186 634.065,386.426 644.512,385.682C651.377,385.193 651.35,385.162 652.494,385.154C655.211,385.135 655.19,385.345 662.487,385.677ZM565.34,376.68C573.492,383.793 576.136,383.202 579.767,385.262C580.457,385.654 580.504,385.69 580.504,386.501C580.503,387.907 579.888,387.579 578.502,387.335C577.545,387.166 549.441,380.447 552.483,362.497C553.36,357.324 555.035,357.461 555.5,357.499C557.677,357.677 554.532,362.4 559.196,369.681C561.322,373 563.428,374.896 565.34,376.68ZM586.4,379.677C585.854,379.341 581.301,376.54 579.75,375.209C576.295,372.247 580.377,369.704 582.58,370.173C584.334,370.546 594.214,376.194 594.477,376.518C595.383,377.633 594.154,378.914 594.011,379.063C590.956,382.248 590.231,381.861 586.4,379.677ZM662.418,351.595L662.399,352.497C662.409,352.784 663.023,352.792 663.034,353.079C663.056,353.706 660.72,353.602 660.514,353.592C654.813,353.337 646.528,346.973 640.368,344.701C640.144,344.619 637.951,343.81 637.696,343.362C637.601,343.195 637.611,341.862 637.689,341.782C638.979,340.465 648.804,345.621 649.709,346.095C656.731,349.78 657.761,350.255 662.418,351.595ZM675.438,357.127C675.753,357.13 678.691,357.158 679.325,357.725C680.402,358.686 679.449,360.22 679.336,360.402C676.902,364.321 674.596,361.405 674.587,361.397C672.944,360.022 672.682,359.874 672.593,359.465C672.11,357.252 673.226,357.632 675.438,357.127ZM574.468,365.671C574.763,365.776 575.093,365.753 575.388,365.858C579.395,367.285 574.529,371.239 572.441,368.547C572.307,368.374 571.038,366.738 571.834,365.872C572.616,365.019 572.794,365.535 574.468,365.671Z" style="fill:rgb(232,232,232);fill-opacity:0.99;"/>
            </g>
            <g transform="matrix(1.436122,0,0,1.436122,506.62289,1191.189497)">
                <path d="M288.241,419.298C288.421,421.167 289.374,422.677 288.295,423.644C286.457,425.293 284.237,426.492 277.213,429.188C266.285,433.383 263.075,435.226 257.416,440.406C255.502,442.158 252.292,447.541 246.416,443.607C242.456,440.956 245.321,435.205 249.694,430.815C253.509,426.985 262.293,422.352 269.679,419.341C278.275,415.837 284.151,415.345 287.111,417.5C287.589,417.849 287.762,418.949 288.241,419.298Z" style="fill:rgb(254,254,254);"/>
            </g>
            <g transform="matrix(1.625977,0,0,1.625977,456.303714,1109.097078)">
                <path d="M198.013,352.849C200.168,353.272 182.83,401.787 183.535,405.239C184.001,407.517 159.296,404.571 156.502,404.606C140.84,404.801 140.861,404.497 139.501,404.531C133.979,404.668 134.005,404.578 128.497,404.596C125.303,404.607 125.257,403.716 125.243,400.503C125.207,392.33 111.661,355.681 112.752,354.786C113.398,354.256 119.576,352.154 129.287,352.443C128.42,353.177 155.084,352.471 155.084,352.471C155.084,352.471 168.494,351.712 179.402,352.172C187.107,352.498 192.216,351.712 198.013,352.849Z" style="fill:rgb(1,107,203);"/>
            </g>
            <g transform="matrix(1.625977,0,0,1.625977,456.303714,1109.097078)">
                <path d="M672.456,413.57C674.461,415.227 675.482,415.271 675.179,426.488C675.019,432.419 674.608,432.811 674.216,433.184C673.712,433.665 673.636,433.894 657.5,433.896C648.495,433.898 647.19,434.077 647.057,432.574C646.938,431.232 654.289,419.395 655.23,417.38C657.838,411.797 659.059,412.38 667.496,412.634C671.422,412.752 671.343,413.168 672.456,413.57Z" style="fill:rgb(251,251,251);"/>
            </g>
            <g transform="matrix(1.625977,0,0,1.625977,456.303714,1109.097078)">
                <path d="M149.458,475.636C150.003,476.549 150.082,476.524 150.089,477.587C150.128,483.521 151.111,488.599 151.293,489.543C153.746,502.224 161.236,508.708 164.451,510.579C173.937,516.1 177.149,513.261 176.476,516.491C176.251,517.57 173.76,517.59 173.507,517.592C160.473,517.694 152.357,511.26 150.861,510.074C143.76,504.445 138.763,490.706 140.225,476.079C140.377,476.026 140.415,475.79 140.567,475.737C142.289,475.135 148.749,475.586 149.458,475.636Z" style="fill:rgb(242,247,250);"/>
            </g>
            <g transform="matrix(1.625977,0,0,1.625977,456.303714,1109.097078)">
                <path d="M494.569,486.443C492.464,483.872 492.481,483.887 492.297,483.668C487.982,478.535 489.001,477.717 491.664,471.569C494.879,464.144 494.668,464.078 497.792,456.627C501.347,448.145 500.715,447.724 501.438,447.396C501.564,447.339 502.636,446.853 503.11,447.793C503.368,448.306 503.441,448.893 503.622,449.438C505.999,456.56 508.685,459.688 509.155,461.558C509.835,464.26 503.007,479.568 499.639,488.577C499.051,490.15 497.841,490.082 497.399,489.707C497.136,489.484 496.707,489.12 494.569,486.443Z" style="fill:rgb(237,131,22);"/>
            </g>
            <g transform="matrix(1.625977,0,0,1.625977,456.303714,1109.097078)">
                <path d="M317.506,451.572C317.204,451.345 316.171,451.459 316.096,449.559C315.836,443.033 316.393,443.053 316.139,436.522C316.011,433.224 314.812,433.683 311.505,433.739C308.521,433.79 307.538,433.523 307.423,436.491C307.173,442.913 308.069,450.926 306.628,451.706C304.727,452.734 304.526,451.647 304.466,449.503C304.151,438.304 304.602,433.847 304.739,432.493C305.05,429.411 304.381,413.073 304.938,411.679C305.41,410.496 307.268,410.432 307.495,410.424C316.944,410.097 317.335,410.508 317.911,411.113C318.835,412.086 318.569,416.038 318.789,430.499C318.85,434.511 319.231,434.473 319.238,438.5C319.255,448.762 319.267,450.519 318.304,451.228C318.071,451.4 317.739,451.4 317.506,451.572Z" style="fill:rgb(231,231,232);"/>
            </g>
            <g transform="matrix(1.625977,0,0,1.625977,456.303714,1109.097078)">
                <path d="M578.556,322.555C578.549,322.823 578.019,322.881 578.012,323.15C577.98,324.408 578.391,324.838 578.494,324.946C578.941,325.413 579.064,324.25 579.493,324.7C574.652,325.776 574.587,325.125 567.436,326.146C561.181,327.039 560.298,327.87 556.481,328.411C556.077,328.468 556.137,328.63 551.532,329.615C549.982,329.947 548.785,330.867 546.435,331.276C542.365,331.984 542.553,332.63 538.525,333.563C536.356,334.066 534.749,335.317 532.372,336.168C525.702,338.554 525.569,338.52 522.47,340.441C520.631,341.582 520.472,341.254 518.559,342.606C514.05,345.792 506.712,348.83 497.204,359.238C496.781,359.7 496.826,359.73 492.182,365.251C490.583,367.151 490.744,367.236 484.794,376.663C484.223,377.567 483.184,380.422 482.021,382.232C480.319,384.882 480.714,385.16 479.398,387.455C478.048,389.81 478.43,389.978 477.066,392.298C476.772,392.799 474.727,397.858 474.04,399.294C473.389,400.652 472.304,404.134 471.097,406.333C470.506,407.412 470.564,407.417 470.501,407.501C469.41,408.952 468.988,408.06 468.614,408.198C467.593,405.083 468.058,404.777 468.341,404.363C468.611,403.967 469.077,403.738 469.368,403.357C469.517,403.162 469.425,403.142 470.456,400.483C471.197,398.573 470.982,398.508 471.883,396.685C472.478,395.479 472.531,395.525 473.125,394.303C473.882,392.745 473.851,391.06 474.332,390.352C474.6,389.957 475.057,389.721 475.351,389.345C475.674,388.931 475.837,387.639 476.618,386.607C477.337,385.659 477.372,385.695 477.734,384.539C478.535,381.98 478.742,382.091 480.11,380.128C480.636,379.374 481.072,376.628 482.631,374.617C483.618,373.345 485.926,369.67 486.104,369.323C486.963,367.641 486.939,367.643 488.1,366.139C489.22,364.69 488.913,364.491 490.157,363.143C490.667,362.591 490.657,362.62 491.163,362.102C493.964,359.235 494.116,358.272 494.646,357.63C494.671,357.6 500.567,351.685 500.62,351.642C501.814,350.674 502.097,351.048 505.104,348.172C507.511,345.87 508.388,346.151 511.62,343.64C514.194,341.641 514.747,342.478 517.11,340.218C518.944,338.464 519.326,339.143 521.097,338.157C521.24,338.078 521.03,337.814 522.697,336.886C526.529,334.751 527.127,335.259 531.55,333.745C534.346,332.788 534.798,331.244 537.501,330.835C538.131,330.74 538.538,331.031 540.455,330.434C541.633,330.067 541.897,329.026 543.513,328.834C544.165,328.756 544.826,328.829 545.482,328.803C548.753,328.672 548.255,327.058 550.519,326.835C552.456,326.645 552.452,326.735 554.312,326.146C555.94,325.631 558.372,325.755 559.116,325.256C559.338,325.107 559.45,324.833 559.654,324.659C561.604,322.994 562.137,324.565 566.35,323.174C568.055,322.611 569.527,323.125 570.338,323.05C570.641,323.022 570.902,322.79 572.486,322.791C575.538,322.793 575.528,322.913 578.556,322.555Z" style="fill:rgb(171,171,172);fill-opacity:0.05;"/>
            </g>
            <g transform="matrix(1.625977,0,0,1.625977,456.303714,1109.097078)">
                <path d="M586.303,417.74C585.525,421.768 584.789,421.481 582.388,426.442C581.9,427.451 582.018,427.495 581.335,428.372C580.344,429.645 579.784,429.258 579.503,429.418C572.868,428.515 572.77,429.783 552.497,427.536C550.097,427.27 547.161,427.665 546.496,427.519C546.204,427.454 545.962,427.231 545.669,427.166C543.343,423.988 543.616,423.838 541.495,420.503C541.362,420.294 540.018,418.18 540.542,417.568C541.651,416.274 541.879,419.12 550.499,418.937C555.011,418.84 554.992,419 559.513,418.866C565.596,418.685 583.668,416.882 585.549,417.383C585.818,417.455 586.035,417.668 586.303,417.74Z" style="fill:rgb(250,250,250);"/>
            </g>
            <g transform="matrix(1.625977,0,0,1.625977,456.303714,1109.097078)">
                <path d="M385.395,455.415C384.104,457.075 382.708,459.146 381.267,457.832C380.11,456.777 381.025,456.17 370.785,441.299C368.599,438.126 369.941,436.832 375.148,425.323C375.667,424.177 375.249,423.759 376.452,423.4C377.649,423.043 378.458,422.851 383.237,430.659C384.674,433.008 391.172,444.864 390.873,447.552C390.695,449.157 388.718,451.389 385.395,455.415Z" style="fill:rgb(240,129,19);"/>
            </g>
            <g transform="matrix(1.625977,0,0,1.625977,456.303714,1109.097078)">
                <path d="M237.529,479.617C241.191,479.564 241.186,479.546 241.504,479.547C242.6,479.467 245.344,478.48 245.038,483.483C243.913,501.841 238.953,509.214 219.502,510.544C219.254,510.561 217.729,510.665 216.388,510.569C216.227,510.558 216.096,510.412 215.935,510.4C215.887,504.832 216.57,502.313 216.754,501.633C220.466,501.03 234.461,499.765 235.784,486.533C236.079,483.587 235.835,483.551 236.754,480.73C237.012,480.359 237.271,479.988 237.529,479.617Z" style="fill:rgb(243,247,250);"/>
            </g>
            <g transform="matrix(1.625977,0,0,1.625977,456.303714,1109.097078)">
                <path d="M395.341,487.58C393.123,483.175 393.226,483.155 391.111,478.679C390.685,477.776 386.278,468.446 385.856,467.359C384.941,465.008 385.247,464.363 390.369,458.39C391.639,456.908 393.619,453.404 395.263,456.631C395.589,457.272 404.867,477.59 405.7,479.413C407.197,482.692 406.929,483.315 400.765,489.761C397.385,493.295 396.768,490.501 395.341,487.58Z" style="fill:rgb(239,133,23);"/>
            </g>
            <g transform="matrix(1.625977,0,0,1.625977,456.303714,1109.097078)">
                <path d="M416.214,416.659C422.074,430.23 422.814,431.16 424.226,434.61C428.239,444.416 428.242,444.495 428.034,445.386C427.813,446.333 422.48,452.298 421.488,452.454C419.982,452.69 419.344,451.47 417.965,448.294C413.854,438.824 413.921,438.823 409.71,429.408C406.746,422.778 407.435,422.246 409.748,419.729C413.669,415.465 413.985,415.455 414.497,415.437C415.096,415.418 415.343,415.594 415.404,415.637C415.951,416.026 415.67,416.273 416.214,416.659Z" style="fill:rgb(239,144,34);fill-opacity:1;"/>
            </g>
            <g transform="matrix(1.625977,0,0,1.625977,456.303714,1109.097078)">
                <path d="M609.495,349.602C613.632,350.048 615.446,350.088 615.549,353.498C615.838,363.116 615.135,366.639 617.228,367.891C617.307,367.938 620.017,369.199 621.213,366.406C621.514,365.703 621.962,361.64 622.14,355.473C622.189,353.752 621.89,353.327 623.539,352.769C623.767,352.692 634.21,355.176 634.388,358.506C634.468,360.001 632.084,368.184 622.545,370.703C619.252,371.572 616.431,372.24 610.47,367.535C605.373,363.511 602.883,353.583 603.845,351.704C604.827,349.787 609.013,349.621 609.495,349.602Z" style="fill:rgb(241,241,242);"/>
            </g>
            <g transform="matrix(1.625977,0,0,1.625977,456.303714,1109.097078)">
                <path d="M607.491,410.608C606.653,411.973 606.077,412.909 598.213,428.346C575.609,472.713 575.317,472.558 573.386,476.432C568.439,486.357 568.51,486.516 567.621,486.861C565.707,487.602 564.432,484.68 564.299,484.376C564.171,484.081 564.555,483.716 564.427,483.421C565.542,481.791 596.619,422.773 599.674,416.605C599.852,416.294 601.032,414.242 601.867,412.697C603.309,411.144 603.245,411.088 603.683,410.898C604.892,410.372 604.934,410.634 607.491,410.608Z" style="fill:rgb(239,197,120);"/>
            </g>
            <g transform="matrix(1.625977,0,0,1.625977,456.303714,1109.097078)">
                <path d="M484.652,512.649C483.359,513.95 481.752,515.905 480.491,515.875C480.081,515.866 479.245,515.846 476.887,512.236C473.111,506.453 471.981,505.912 474.255,503.291C478.199,498.745 484.922,487.572 485.295,487.224C486.853,485.771 488.458,488.344 488.553,488.45C494.395,494.987 496.221,495.513 494.25,499.381C490.617,506.506 485.564,511.709 484.652,512.649Z" style="fill:rgb(240,145,28);"/>
            </g>
            <g transform="matrix(1.625977,0,0,1.625977,456.303714,1109.097078)">
                <path d="M352.875,389.405C352.592,387.562 351.843,385.462 353.311,384.233C354.24,383.455 362.752,382.724 366.504,382.605C372.867,382.403 386.524,383.666 387.033,386.538C387.195,387.456 386.892,387.39 385.943,389.683C385.599,390.513 384.163,394.901 382.438,395.276C381.253,395.533 379.442,394.813 379.412,394.805C367.771,391.397 364.305,392.688 356.498,393.473C353.48,393.776 353.407,391.552 352.875,389.405Z" style="fill:rgb(237,158,62);fill-opacity:1;"/>
            </g>
            <g transform="matrix(1.625977,0,0,1.625977,456.303714,1109.097078)">
                <path d="M403.27,495.271C408.59,489.889 408.585,489.704 409.502,489.722C411.583,489.764 411.135,493.254 421.894,505.162C424.19,507.703 423.669,508.341 420.893,513.705C419.806,515.804 418.843,519.4 415.741,517.147C410.825,513.578 404.5,504.592 403.657,503.394C399.835,497.964 401.342,497.3 403.27,495.271Z" style="fill:rgb(242,142,24);"/>
            </g>
            <g transform="matrix(1.625977,0,0,1.625977,456.303714,1109.097078)">
                <path d="M208.051,510.339C208.314,512.575 208.322,513.244 208.325,513.498C208.483,526.443 209.213,529.575 208.483,530.489C207.883,531.241 207.584,531.616 196.5,531.466C192.975,531.418 193.24,530.45 192.601,529.45C193.074,529.133 195.244,529.805 194.486,522.499C194.072,518.5 194.184,518.521 194.063,514.506C193.88,508.449 197.861,511.957 208.051,510.339Z" style="fill:rgb(8,117,208);"/>
            </g>
            <g transform="matrix(1.625977,0,0,1.625977,456.303714,1109.097078)">
                <path d="M463.624,525.888C463.383,525.959 454.585,528.715 453.344,526.624C452.659,525.471 450.806,518.334 450.958,517.542C451.472,514.854 453.252,516.917 464.435,511.367C468.543,509.329 468.977,510.744 472.307,515.628C474.464,518.792 475.438,520.576 473.615,521.655C470.117,523.725 464.448,525.614 463.624,525.888Z" style="fill:rgb(242,171,41);"/>
            </g>
            <g transform="matrix(3.866494,0,0,1.625977,-1066.867402,1109.097078)">
                <path d="M680.726,452.529C680.655,452.208 680.747,451.865 680.676,451.544C680.516,450.822 680.224,450.135 680.039,449.419C679.8,448.496 679.851,448.496 679.83,437.501C679.825,435.008 680.3,435.13 680.577,434.474L680.817,432.46C680.904,425.072 680.859,425.094 680.789,418.499C680.722,412.262 680.377,410.656 684.501,410.645C690.778,410.628 691.117,410.964 691.575,411.422C692.324,412.171 692.546,413.646 692.315,429.496C692.263,433.018 692.542,432.979 692.902,436.496C692.918,449.102 692.893,449.082 692.383,452.502C692.049,454.744 692.683,456.867 691.636,458.624C691.302,459.184 691.084,459.55 683.512,459.292C680.252,459.181 680.726,457.003 680.726,452.529ZM681.703,451.357C681.823,451.729 682.696,451.351 682.816,451.722C685.764,451.741 687.759,451.671 690.687,451.412C691.064,450.568 691.316,450.453 691.589,449.551C691.949,436.291 691.355,435.422 690.833,434.311C690.723,434.307 690.614,434.303 690.508,434.3C690.501,434.284 690.494,434.269 690.487,434.254C685.116,434.056 683.381,434.543 681.746,434.651C681.638,434.903 681.658,435.062 681.659,435.285C681.622,435.406 681.592,435.542 681.609,435.79C681.465,436.487 681.291,436.721 681.369,437.386C681.37,437.4 681.594,444.606 681.593,445.244C681.584,451.068 681.347,450.998 681.703,451.357Z" style="fill:rgb(241,241,241);"/>
            </g>
            <g transform="matrix(1.292159,0,0,1.292159,540.674756,1261.561159)">
                <path d="M241.834,469.334C238.256,469.662 233.994,469.5 233.994,469.5C233.891,468.997 233.431,469.055 233.643,466.514C234.071,461.397 233.698,461.351 235.002,456.371C235.512,454.424 236.523,449.486 239.719,446.767C243.088,443.9 249.72,447.509 247.624,454.539C247.444,455.144 245.539,459.385 244.295,466.447C243.917,468.594 243.9,468.11 241.834,469.334Z" style="fill:rgb(253,253,253);"/>
            </g>
            <g transform="matrix(1.625977,0,0,1.625977,456.303714,1109.097078)">
                <path d="M437.537,527.296C436.555,527.073 430.204,525.627 425.6,523.308C422.736,521.867 423.367,520.783 426.843,513.669C428.157,510.982 428.87,511.069 431.563,512.374C439.348,516.144 442.907,515.266 444.34,516.668C445.559,517.862 447.33,526.559 446.523,527.518C445.56,528.664 443.202,528.148 437.537,527.296Z" style="fill:rgb(238,148,28);"/>
            </g>
            <g transform="matrix(1.625977,0,0,1.625977,456.303714,1109.097078)">
                <path d="M405.621,415.691C405.613,415.694 405.214,416.186 404.479,416.185C401.747,416.18 401.652,410.343 389.892,400.059C387.682,398.126 388.658,396.952 391.952,389.799C392.129,389.698 392.21,389.47 392.387,389.37C393.846,388.54 393.978,388.747 395.441,389.611C400.254,392.452 404.811,398.084 404.88,398.158C408.311,401.898 408.298,401.9 410.817,406.312C412.509,409.417 411.476,409.79 406.671,414.683C406.153,415.21 406.151,415.182 405.621,415.691Z" style="fill:rgb(240,140,23);fill-opacity:1;"/>
            </g>
            <g transform="matrix(1.625977,0,0,1.625977,456.303714,1109.097078)">
                <path d="M141.483,452.633C141.287,452.364 140.685,452.8 140.49,452.53C140.27,452.227 140.635,451.785 140.598,451.412C140.569,451.115 140.361,450.86 140.294,450.568C139.976,449.184 139.933,435.786 139.929,434.5C139.877,418.539 138.822,416.65 142.501,416.522C146.077,416.398 146.66,416.928 146.769,420.492C147.198,434.514 147.089,434.491 147.706,448.493C147.84,451.53 146.943,451.681 146.491,452.449C143.964,452.48 143.985,452.485 141.483,452.633Z" style="fill:rgb(236,244,249);"/>
            </g>
            <g transform="matrix(1.625977,0,0,1.625977,456.303714,1109.097078)">
                <path d="M140.491,458.476C147.819,457.638 164.408,458.626 166.484,458.749C172.942,459.134 181.866,458.973 182.799,461.363C183.14,462.237 183.765,470.248 182.287,471.132C181.907,471.358 181.562,471.392 181.495,471.398C181.001,471.446 181.027,471.254 180.55,471.3L180.251,470.926C179.613,465 180.378,463.11 177.444,462.805C175.616,462.615 168.981,461.924 154.481,462.077C154.209,462.079 151.778,462.105 151.365,463.457C150.763,465.429 152.137,466.092 150.498,469.491C145.975,469.559 145.995,469.597 141.463,469.648C141.417,469.509 140.891,468.888 140.791,466.484C140.765,465.843 140.775,465.857 140.491,458.476Z" style="fill:rgb(226,233,239);fill-opacity:1;"/>
            </g>
            <g transform="matrix(1.625977,0,0,1.625977,456.303714,1109.097078)">
                <path d="M480.816,417.273C484.97,422.59 484.691,422.795 484.725,423.49C484.837,425.749 474.984,448.299 473.585,452.541C473.525,452.722 473.081,454.069 471.712,454.016C471.389,454.003 467.95,449.342 467.379,448.588C467.507,448.175 467.961,447.914 468.089,447.5C468.188,447.181 468.014,446.834 468.026,446.5C468.082,445.031 469.112,443.51 469.149,443.344C469.225,443.007 468.918,442.629 469.058,442.313C469.25,441.881 469.826,441.719 470.055,441.305C470.21,441.027 470.044,440.656 470.144,440.354C470.247,440.04 470.506,439.798 470.649,439.5C471.487,437.753 470.862,437.604 471.005,437.291C471.201,436.859 471.796,436.72 472.035,436.31C472.197,436.032 472.032,435.655 472.136,435.35C472.242,435.037 472.497,434.794 472.65,434.5C472.843,434.131 473.103,433.775 473.171,433.364C473.23,433.014 472.866,432.634 473.015,432.313C473.221,431.871 473.87,431.77 474.111,431.346C474.276,431.057 473.988,430.647 474.134,430.347C474.339,429.924 474.855,429.718 475.095,429.314C475.633,428.406 474.664,428.271 475.12,427.329C475.334,426.888 476,426.814 476.259,426.397C476.432,426.119 476.171,425.712 476.311,425.416C476.508,425 476.997,424.778 477.215,424.373C477.364,424.097 477.241,423.729 477.373,423.445C477.563,423.039 477.964,422.757 478.16,422.354C478.296,422.072 478.36,421.747 478.345,421.435C478.326,421.047 477.856,420.635 478.061,420.305C478.356,419.83 479.201,419.956 479.54,419.511C479.746,419.242 479.268,418.794 479.436,418.5C479.741,417.965 480.511,417.808 480.816,417.273Z" style="fill:rgb(239,137,26);"/>
            </g>
            <g transform="matrix(1.625977,0,0,1.625977,456.303714,1109.097078)">
                <path d="M328.503,412.668C331.884,412.682 335.15,412.341 337.133,413.938C337.776,414.455 341.727,418.564 342.018,418.914C345.748,423.403 345.779,423.369 346.089,423.77C346.565,424.388 347.044,426.327 344.478,426.283C336.91,426.154 331.896,426.478 326.52,426.24C323.266,426.097 323.614,424.233 323.576,416.5C323.555,412.292 325.04,412.77 328.503,412.668Z" style="fill:rgb(243,243,243);"/>
            </g>
            <g transform="matrix(1.625977,0,0,1.625977,456.303714,1109.097078)">
                <path d="M514.64,357.688C517.795,355.288 519.435,353.702 520.416,357.527C520.528,357.965 521.994,361.141 520.03,363.044C518.377,364.645 518.102,364.343 512.075,371.121C504.968,379.115 504.547,382.485 502.461,383.039C500.859,383.464 497.921,377.387 497.906,376.487C497.866,374.149 507.373,363.113 514.64,357.688Z" style="fill:rgb(244,244,244);fill-opacity:1;"/>
            </g>
            <g transform="matrix(1.625977,0,0,1.625977,456.303714,1109.097078)">
                <path d="M150.498,469.491C152.137,466.092 150.763,465.429 151.365,463.457C151.778,462.105 154.209,462.079 154.481,462.077C168.981,461.924 175.616,462.615 177.444,462.805C180.378,463.11 179.613,465 180.251,470.926C179.685,471.028 179.12,471.13 178.554,471.233C159.686,469.81 159.65,470.632 153.514,469.991C151.919,469.824 151.811,469.561 151.501,469.503C151.172,469.442 150.826,469.552 150.498,469.491Z" style="fill:rgb(4,112,206);"/>
            </g>
            <g transform="matrix(1.625977,0,0,1.625977,456.303714,1109.097078)">
                <path d="M442.433,476.436C437.566,481.255 435.199,482.2 432.976,479.14C431.677,477.351 423.359,462.223 423.919,459.583C424.387,457.376 427.811,453.718 428.229,453.272C429.247,452.165 430.886,449.605 432.333,453.57C434.318,459.008 443.187,473.09 443.342,474.498C443.468,475.633 443.088,475.512 442.433,476.436Z" style="fill:rgb(240,139,25);"/>
            </g>
            <g transform="matrix(1.625977,0,0,1.625977,456.303714,1109.097078)">
                <path d="M191.145,501.271C191.411,501.212 191.564,500.885 191.83,500.826C192.08,500.771 192.333,500.937 192.588,500.951C193.399,500.992 203.187,500.771 208.471,501.508C208.588,507.503 208.06,510.274 208.051,510.339C197.861,511.957 193.88,508.449 194.063,514.506C194.184,518.521 194.072,518.5 194.486,522.499C195.244,529.805 193.074,529.133 192.601,529.45C191.282,524.043 191.518,524.014 190.973,518.461C190.539,514.026 190.701,501.856 190.797,501.577C190.847,501.431 191.094,501.417 191.145,501.271Z" style="fill:rgb(229,236,241);"/>
            </g>
            <g transform="matrix(1.625977,0,0,1.625977,456.303714,1109.097078)">
                <path d="M260.187,509.337C269.545,490.452 263.855,482.273 267.504,482.472C268.39,482.521 269.133,482.783 268.923,493.469C268.342,523.037 244.492,527.052 238.525,528.099C234.19,528.86 234.738,527.1 234.924,526.858C235.292,526.38 237.122,526.164 237.321,526.141C239.34,525.902 248.207,523.871 254.419,517.424C257.738,513.979 259.816,510.04 260.187,509.337Z" style="fill:rgb(13,35,47);"/>
            </g>
            <g transform="matrix(1.625977,0,0,1.625977,456.303714,1109.097078)">
                <path d="M487.089,395.308C488.601,392.037 488.398,391.965 489.947,388.72C492.799,382.742 492.981,382.707 493.538,382.598C495.109,382.29 495.445,383.641 496.641,385.407C499.467,389.579 499.822,390.019 497.667,394.58C493.258,403.913 490.383,411.252 489.394,413.457C488.482,412.442 488.616,412.342 487.587,411.447C486.441,410.45 484.863,408.363 485.038,406.525C485.054,406.358 485.193,404.903 485.386,404.45C485.564,404.032 485.972,403.745 486.173,403.338C486.308,403.064 486.251,402.724 486.375,402.444C486.554,402.04 486.899,401.723 487.07,401.315C487.2,401.008 486.978,400.958 487.597,399.5C487.698,399.263 488.835,396.589 488.782,396.5C488.432,395.905 487.438,395.903 487.089,395.308Z" style="fill:rgb(241,165,55);"/>
            </g>
            <g transform="matrix(1.625977,0,0,1.625977,456.303714,1109.097078)">
                <path d="M524.346,404.72C523.521,404.111 521.58,403.036 521.605,401.505C521.638,399.503 528.222,391.666 530.581,389.593C533.107,387.374 533.579,388.716 535.824,391.21C538.622,394.319 540.67,394.676 537.977,397.896C534.687,401.83 534.76,401.862 532.149,406.292C530.299,409.43 528.33,407.311 524.346,404.72Z" style="fill:rgb(247,247,248);"/>
            </g>
            <g transform="matrix(1.625977,0,0,1.625977,456.303714,1109.097078)">
                <path d="M465.59,454.45C467.878,457.743 469.144,459.288 469.446,460.517C470.16,463.422 463.779,475.084 462.316,477.387C458.995,482.613 457.15,481.556 452.735,477.236C453.34,476.543 453.533,476.74 454.361,475.375C454.507,475.134 456.001,472.667 456.075,472.299C456.114,472.104 455.888,471.885 455.981,471.708C456.068,471.544 456.378,471.641 456.497,471.499C456.566,471.416 456.5,471.386 457.211,470.355C457.739,469.589 457.413,469.461 457.884,468.682C457.971,468.538 458.209,468.545 458.309,468.409C458.868,467.655 458.437,467.489 458.905,466.692C458.994,466.541 459.264,466.582 459.367,466.44C459.934,465.664 459.418,465.498 459.865,464.669C459.949,464.514 460.23,464.57 460.335,464.429C460.913,463.652 460.292,463.453 460.785,462.629C460.889,462.455 461.226,462.585 461.362,462.434C462.009,461.712 461.204,461.453 461.707,460.626C461.82,460.439 462.435,460.881 462.701,459.631C462.766,459.326 462.622,458.968 462.777,458.698C462.889,458.505 463.245,458.601 463.392,458.433C463.77,457.997 463.545,457.87 464.048,457.29C464.218,457.094 464.603,456.649 465.59,454.45Z" style="fill:rgb(241,145,27);"/>
            </g>
            <g transform="matrix(1.625977,0,0,1.625977,456.303714,1109.097078)">
                <path d="M358.519,417.734C362.028,417.594 364.676,417.38 368.564,418.247C373.266,419.296 372.361,421.065 370.468,425.487C367.388,432.681 367.48,432.71 367.183,433.321C366.86,433.987 365.455,435.433 364.453,433.541C364.121,432.913 364.142,432.934 363.767,432.326C363.195,431.399 361.011,427.857 355.534,421.474C352.228,417.622 356.778,417.892 358.519,417.734Z" style="fill:rgb(233,127,22);"/>
            </g>
            <g transform="matrix(1.625977,0,0,1.625977,456.303714,1109.097078)">
                <path d="M549.407,390.258C547.346,391.153 547.401,391.217 545.35,392.189C542.9,393.351 541.692,391.993 539.408,389.588C536.059,386.061 535.738,384.745 538.142,383.027C540.933,381.033 546.091,378.409 547.5,378.49C549.448,378.602 551.266,382.481 555.637,385.365C556.3,385.802 556.525,385.669 556.629,386.464C556.829,387.993 555.653,387.824 549.407,390.258Z" style="fill:rgb(246,246,246);"/>
            </g>
            <g transform="matrix(1.625977,0,0,1.625977,456.303714,1109.097078)">
                <path d="M659.499,449.222C672.909,449.203 672.974,449.155 673.48,449.533C674.53,450.318 675.447,453.464 671.502,453.538C668.941,453.586 668.971,453.511 639.486,453.67C639.209,453.672 635.52,453.692 637.761,450.672C639.111,448.854 639.586,449.21 659.499,449.222Z" style="fill:rgb(235,235,235);"/>
            </g>
            <g transform="matrix(1.625977,0,0,1.625977,464.17406,1107.785354)">
                <path d="M182.127,358.838C183.15,359.226 177.911,382.359 177.911,382.359C177.911,382.359 174.761,400.857 174.434,402.362C171.988,402.484 170.75,398.92 170.797,386.773C170.804,384.956 175.45,370.618 174.644,369.734C176.849,363.111 179.09,357.686 182.127,358.838Z" style="fill:rgb(70,148,210);"/>
            </g>
            <g transform="matrix(1.625977,0,0,1.625977,456.303714,1109.097078)">
                <path d="M332.374,399.693C330.82,398.702 327.43,396.831 327.34,396.786C325.72,395.98 324.989,396.22 325.265,394.431C325.363,393.789 326.285,393.394 326.4,393.344C327.969,392.671 344.592,385.539 346.431,385.987C348.15,386.405 348.787,390.111 348.865,390.382C349.381,392.278 350.501,394.388 347.535,395.576C341.924,397.824 341.94,397.797 336.368,400.196C334.13,401.159 332.908,399.99 332.374,399.693Z" style="fill:rgb(245,200,103);fill-opacity:1;"/>
            </g>
            <g transform="matrix(1.625977,0,0,1.625977,456.303714,1109.097078)">
                <path d="M140.491,458.476C140.775,465.857 140.765,465.843 140.791,466.484C140.891,468.888 141.417,469.509 141.463,469.648C141.134,469.742 140.766,469.62 140.436,469.714C140.056,469.823 140.144,470.155 138.488,470.372C130.876,471.371 129.46,471.176 129.329,468.514C128.89,459.623 129.951,459.202 130.672,458.917C131.546,458.571 135.099,458.321 135.487,458.294C138.716,458.067 138.857,458.237 140.491,458.476Z" style="fill:rgb(5,119,210);"/>
            </g>
            <g transform="matrix(1.625977,0,0,1.625977,456.303714,1109.097078)">
                <path d="M268.586,470.172C268.538,469.764 267.787,469.685 267.739,469.277C267.699,468.938 268.219,468.782 268.387,468.485C268.814,467.727 268.963,465.464 273.729,460.732C274.588,459.879 278.406,456.089 286.607,452.79C286.803,452.711 288.727,451.938 289.124,453.612C290.002,457.316 285.101,457.545 280.137,462.104C275.316,466.531 275.259,467.637 274.707,468.62C273.522,470.732 272.494,470.325 268.586,470.172Z" style="fill:rgb(194,196,197);"/>
            </g>
            <g transform="matrix(1.625977,0,0,1.625977,456.303714,1109.097078)">
                <path d="M191.145,501.271C191.053,500.987 190.571,500.402 190.506,498.5C190.39,495.131 191.236,494.647 193.5,494.639C206.386,494.594 206.376,494.535 207.495,494.566C207.531,494.567 211.556,493.751 208.471,501.508C203.187,500.771 193.399,500.992 192.588,500.951C192.333,500.937 192.08,500.771 191.83,500.826C191.564,500.885 191.411,501.212 191.145,501.271Z" style="fill:rgb(7,106,202);"/>
            </g>
            <g transform="matrix(1.625977,0,0,1.625977,456.303714,1109.097078)">
                <path d="M296.468,434.097C294.713,433.667 294.073,434.226 293.697,432.456C293.48,431.432 293.547,414.913 293.639,413.509C293.868,409.993 298.5,409.938 298.729,413.483C298.732,413.532 298.758,431.182 298.741,431.52C298.612,434.035 296.763,433.958 296.468,434.097Z" style="fill:rgb(235,235,235);"/>
            </g>
            <g transform="matrix(1.625977,0,0,1.625977,456.303714,1109.097078)">
                <path d="M443.419,481.413C444.249,480.625 446.008,478.755 446.536,478.577C448.322,477.976 449.56,479.948 449.809,480.219C452.728,483.391 454.273,484.001 454.218,485.482C454.138,487.644 448.519,488.872 446.493,488.821C444.488,488.771 439.409,487.369 439.384,485.501C439.368,484.326 440.34,484.155 443.419,481.413Z" style="fill:rgb(239,164,45);"/>
            </g>
            <g transform="matrix(1.625977,0,0,1.625977,456.303714,1109.097078)">
                <path d="M465.59,454.45C464.603,456.649 464.218,457.094 464.048,457.29C463.545,457.87 463.77,457.997 463.392,458.433C463.245,458.601 462.889,458.505 462.777,458.698C462.622,458.968 462.766,459.326 462.701,459.631C462.435,460.881 461.82,460.439 461.707,460.626C461.204,461.453 462.009,461.712 461.362,462.434C461.226,462.585 460.889,462.455 460.785,462.629C460.292,463.453 460.913,463.652 460.335,464.429C460.23,464.57 459.949,464.514 459.865,464.669C459.418,465.498 459.934,465.664 459.367,466.44C459.264,466.582 458.994,466.541 458.905,466.692C458.437,467.489 458.868,467.655 458.309,468.409C458.209,468.545 457.971,468.538 457.884,468.682C457.413,469.461 457.739,469.589 457.211,470.355C456.5,471.386 456.566,471.416 456.497,471.499C456.378,471.641 456.068,471.544 455.981,471.708C455.888,471.885 456.114,472.104 456.075,472.299C456.001,472.667 454.507,475.134 454.361,475.375C453.533,476.74 453.34,476.543 452.735,477.236C452.452,476.883 452.103,476.586 451.819,476.232C449.496,473.338 452.932,473.458 461.811,454.663C463.78,450.495 465.519,454.348 465.59,454.45Z" style="fill:rgb(230,196,120);"/>
            </g>
            <g transform="matrix(1.625977,0,0,1.625977,456.303714,1109.097078)">
                <path d="M480.816,417.273C480.511,417.808 479.741,417.965 479.436,418.5C479.268,418.794 479.746,419.242 479.54,419.511C479.201,419.956 478.356,419.83 478.061,420.305C477.856,420.635 478.326,421.047 478.345,421.435C478.36,421.747 478.296,422.072 478.16,422.354C477.964,422.757 477.563,423.039 477.373,423.445C477.241,423.729 477.364,424.097 477.215,424.373C476.997,424.778 476.508,425 476.311,425.416C476.171,425.712 476.432,426.119 476.259,426.397C476,426.814 475.334,426.888 475.12,427.329C474.664,428.271 475.633,428.406 475.095,429.314C474.855,429.718 474.339,429.924 474.134,430.347C473.988,430.647 474.276,431.057 474.111,431.346C473.87,431.77 473.221,431.871 473.015,432.313C472.866,432.634 473.23,433.014 473.171,433.364C473.103,433.775 472.843,434.131 472.65,434.5C472.497,434.794 472.242,435.037 472.136,435.35C472.032,435.655 472.197,436.032 472.035,436.31C471.796,436.72 471.201,436.859 471.005,437.291C470.862,437.604 471.487,437.753 470.649,439.5C470.506,439.798 470.247,440.04 470.144,440.354C470.044,440.656 470.21,441.027 470.055,441.305C469.826,441.719 469.25,441.881 469.058,442.313C468.918,442.629 469.225,443.007 469.149,443.344C469.112,443.51 468.082,445.031 468.026,446.5C468.014,446.834 468.188,447.181 468.089,447.5C467.961,447.914 467.507,448.175 467.379,448.588C465.301,445.581 466.014,445.227 467.735,440.593C468.131,439.528 468.115,439.553 468.5,438.5C469.337,436.42 469.35,436.457 470.248,434.399C473.664,426.564 473.469,426.5 476.881,418.675C476.991,418.421 478.115,415.843 478.583,415.655C478.861,415.544 480.032,415.722 480.126,415.836C480.463,416.247 480.479,416.862 480.816,417.273Z" style="fill:rgb(217,171,94);"/>
            </g>
            <g transform="matrix(1.625977,0,0,1.625977,456.303714,1109.097078)">
                <path d="M555.137,449.445C555.392,449.144 554.686,446.918 562.497,447.548C568.306,448.016 572.022,447.626 571.989,450.499C571.953,453.618 565.952,452.751 564.489,452.652C563.922,452.613 560.124,452.355 557.429,451.861C554.94,451.405 555.216,449.662 555.137,449.445Z" style="fill:rgb(253,253,253);"/>
            </g>
            <g transform="matrix(1.625977,0,0,1.625977,456.303714,1109.097078)">
                <path d="M172.82,441.474C172.836,441.322 173.014,439.578 173.014,439.578C172.999,439.202 172.774,438.859 172.73,438.485C172.58,437.213 172.753,437.216 171.945,422.489C171.771,419.321 171.87,418.287 172.355,417.355C172.513,417.051 174.249,415.864 174.641,418.462C174.927,420.362 175.466,435.975 175.518,437.499C175.529,437.82 175.527,437.796 175.638,441.507C175.392,441.945 174.948,441.686 174.522,443.498C174.177,444.968 174.351,444.961 174.276,445.601C174.168,445.435 173.873,445.466 173.765,445.3C173.75,445.278 173.483,444.283 173.372,443.541C173.213,442.477 173.101,442.526 172.82,441.474Z" style="fill:rgb(70,148,210);"/>
            </g>
            <g transform="matrix(1.625977,0,0,1.625977,456.303714,1109.097078)">
                <path d="M487.089,395.308C487.438,395.903 488.432,395.905 488.782,396.5C488.835,396.589 487.698,399.263 487.597,399.5C486.978,400.958 487.2,401.008 487.07,401.315C486.899,401.723 486.554,402.04 486.375,402.444C486.251,402.724 486.308,403.064 486.173,403.338C485.972,403.745 485.564,404.032 485.386,404.45C485.193,404.903 485.054,406.358 485.038,406.525C484.863,408.363 486.441,410.45 487.587,411.447C488.616,412.342 488.482,412.442 489.394,413.457C488.665,415.029 489.074,415.485 487.448,416.056C486.875,416.257 486.248,416.341 482.627,410.418C480.501,406.942 482.291,405.707 487.089,395.308Z" style="fill:rgb(226,194,120);"/>
            </g>
            <g transform="matrix(1.625977,0,0,1.625977,456.303714,1109.097078)">
                <path d="M445.472,446.928C448.053,447.127 454.058,446.863 453.079,450.348C452.847,451.175 452.207,453.452 442.447,451.807C438.095,451.074 438.592,446.689 442.5,446.757C442.738,446.761 442.72,446.77 445.472,446.928Z" style="fill:rgb(253,253,253);"/>
            </g>
            <g transform="matrix(1.625977,0,0,1.625977,456.303714,1109.097078)">
                <path d="M308.909,402.727C310.399,401.487 315.431,399.114 316.562,398.965C318.732,398.678 323.348,401.53 325.569,402.427C325.733,402.493 327.505,403.209 326.45,404.446C325.947,405.036 318.04,403.693 312.529,404.085C310.951,404.197 310.877,404.502 310.14,403.986C309.028,403.209 309.152,402.975 308.909,402.727Z" style="fill:rgb(218,218,218);fill-opacity:0.99;"/>
            </g>
            <g transform="matrix(1.625977,0,0,1.625977,456.303714,1109.097078)">
                <path d="M129.051,355.463C134.531,355.149 149.033,356.309 149.663,356.267C150.116,356.237 155.468,356.152 155.062,356.909C154.621,357.731 153.678,361.421 153.678,361.421C153.678,361.421 152.98,366.125 151.677,371.548C149.214,381.804 148.416,394.316 148.669,395.436C148.463,395.783 147.501,395.102 139.496,395.146C139.167,395.148 137.561,395.309 136.698,394.347C136.501,394.127 136.383,393.837 136.312,393.551C136.223,393.195 136.344,392.801 136.226,392.453C136.127,392.163 135.659,392.015 135.687,391.71C135.695,391.625 129.185,365.239 128.303,357.876C128.174,356.8 128.94,355.556 129.051,355.463Z" style="fill:rgb(246,248,250);"/>
            </g>
            <g transform="matrix(1.625977,0,0,1.625977,456.303714,1109.097078)">
                <path d="M462.529,420.592C465.112,419.593 465.205,419.718 465.343,419.904C465.513,420.134 465.129,420.451 465.134,420.738C465.138,420.998 465.43,421.229 465.368,421.482C465.258,421.93 465.14,421.875 462.612,426.547C462.432,426.88 461.768,428.583 460.5,428.476C460.193,428.45 459.927,428.22 459.62,428.194C457.492,425.182 459.525,425.208 460.413,424.38C460.667,424.143 460.461,424.015 462.529,420.592Z" style="fill:rgb(184,184,184);fill-opacity:0.05;"/>
            </g>
            <g transform="matrix(1.625977,0,0,1.625977,456.303714,1109.097078)">
                <path d="M364.543,458.507C366.091,457.83 366.071,457.721 366.202,457.782C366.295,457.825 366.592,457.963 367.07,458.725C367.07,458.725 367.331,460.377 367.354,460.521C367.357,460.919 367.386,464.148 367.766,465.488C367.871,465.858 368.231,466.128 368.31,466.504C368.375,466.813 368.113,467.132 368.178,467.441C367.783,467.136 368.301,466.873 367.905,466.568C367.808,466.493 367.755,466.64 366.443,466.104C365.333,465.65 365.456,465.444 365.406,464.559C365.398,464.408 365.319,463.018 365.174,462.681C365.12,462.555 364.855,462.587 364.832,462.452C364.721,461.803 364.817,461.135 364.798,460.477C364.761,459.179 364.569,458.712 364.543,458.507Z" style="fill:rgb(20,23,21);fill-opacity:0.98;"/>
            </g>
            <g transform="matrix(1.625977,0,0,1.625977,456.303714,1109.097078)">
                <path d="M659.303,366.918C659.098,366.703 658.746,366.671 658.542,366.455C656.744,364.564 659.043,362.626 660.46,362.901C663.769,363.542 662.874,367.381 660.496,367.203C660.088,367.172 659.71,366.949 659.303,366.918Z" style="fill:rgb(219,219,219);"/>
            </g>
            <g transform="matrix(1.625977,0,0,1.625977,456.303714,1109.097078)">
                <path d="M360.785,453.377C360.526,453.656 360.552,454.128 360.293,454.407C358.975,455.827 353.214,450.917 356.535,450.746C357.952,450.672 360.496,453.101 360.785,453.377Z" style="fill:rgb(66,67,66);"/>
            </g>
            <g transform="matrix(1.625977,0,0,1.625977,456.303714,1109.097078)">
                <path d="M175.5,464.614C176.14,464.959 176.147,464.91 176.796,465.26C177.627,465.709 177.243,466.498 177.243,466.5C176.902,466.72 176.787,467.2 176.446,467.42C175.774,467.854 173.387,467.425 173.174,466.646C173.08,466.303 173.37,464.529 173.478,464.456C173.613,464.366 173.618,464.467 175.5,464.614Z" style="fill:rgb(5,43,77);"/>
            </g>
            <g transform="matrix(1.625977,0,0,1.625977,456.303714,1109.097078)">
                <path d="M172.82,441.474C173.101,442.526 173.213,442.477 173.372,443.541C173.483,444.283 173.75,445.278 173.765,445.3C173.873,445.466 174.168,445.435 174.276,445.601L174.496,446.501C174.439,446.833 174.592,447.178 174.535,447.509C174.332,448.692 172.05,449.399 172.042,446.552C172.041,446.2 172.185,445.856 172.173,445.505C172.161,445.17 171.883,444.844 171.971,444.52C172.145,443.879 172.476,444.091 172.723,443.478C172.783,443.329 172.73,443.33 172.82,441.474Z" style="fill:rgb(17,98,167);"/>
            </g>
            <g transform="matrix(1.625977,0,0,1.625977,456.303714,1109.097078)">
                <path d="M196.512,520.485C196.554,519.072 196.058,518.496 197.468,518.312C199.777,518.01 199.799,520.791 198.407,521.221C198.12,521.31 197.799,521.232 197.512,521.32L196.512,520.485Z" style="fill:rgb(151,201,235);"/>
            </g>
            <g transform="matrix(1.625977,0,0,1.625977,456.303714,1109.097078)">
                <path d="M340.853,445.603C340.973,445.415 340.178,444.789 341.519,444.558C342.977,444.307 343.793,445.019 343.944,445.15C344.658,445.772 344.363,446.426 344.382,446.482C344.174,446.524 344.023,446.729 343.816,446.771C343.632,446.808 342.204,447.094 341.488,446.51C341.202,446.277 341.139,445.837 340.853,445.603Z" style="fill:rgb(37,38,36);"/>
            </g>
            <g transform="matrix(1.625977,0,0,1.625977,456.303714,1109.097078)">
                <path d="M175.638,441.507C175.635,441.668 175.604,443.517 175.604,443.517C175.441,445.936 174.619,446.257 174.496,446.501L174.276,445.601C174.351,444.961 174.177,444.968 174.522,443.498C174.948,441.686 175.392,441.945 175.638,441.507Z" style="fill:rgb(39,131,202);"/>
            </g>
            <g transform="matrix(1.625977,0,0,1.625977,456.303714,1109.097078)">
                <path d="M654.608,410.479L655.5,411.904L654.443,412.5C654.498,411.826 654.553,411.152 654.608,410.479Z" style="fill:rgb(20,23,20);"/>
            </g>
            <g transform="matrix(1.625977,0,0,1.625977,456.303714,1109.097078)">
                <path d="M113.522,389.186L115.259,389.842C114.424,390.073 113.588,390.305 112.752,390.536L113.522,389.186Z" style="fill:rgb(98,98,98);fill-opacity:0.09;"/>
            </g>
            <g transform="matrix(1.625977,0,0,1.625977,456.303714,1109.097078)">
                <path d="M461.652,520.318C461.269,520.067 461.185,520.372 460.792,520.114C460.485,519.912 460.759,519.725 460.453,519.531C460.23,519.389 459.779,519.644 459.671,519.403C459.541,519.111 459.803,518.757 459.993,518.5C460.102,518.352 460.391,518.427 460.5,518.279C460.884,518.959 461.268,519.638 461.652,520.318Z" style="fill:rgb(249,176,41);"/>
            </g>
            <g transform="matrix(1.625977,0,0,1.625977,456.303714,1109.097078)">
                <path d="M382.467,386.843C382.853,387.007 383.17,386.045 383.556,386.21C384.603,386.657 384.568,387.59 384.562,387.736C384.555,387.919 384.463,387.694 382.467,386.843Z" style="fill:rgb(240,164,73);"/>
            </g>
            <g transform="matrix(1.625977,0,0,1.625977,456.303714,1109.097078)">
                <path d="M417.834,435.59C418.027,436.608 419.15,436.924 418.137,437.194C417.62,437.331 417.512,436.759 417.5,436.696C417.386,436.092 417.95,436.201 417.834,435.59Z" style="fill:rgb(250,139,22);"/>
            </g>
            <g transform="matrix(1.625977,0,0,1.625977,456.303714,1109.097078)">
                <path d="M180.251,470.926L180.55,471.3C179.885,471.278 179.22,471.255 178.554,471.233C179.12,471.13 179.685,471.028 180.251,470.926Z" style="fill:rgb(31,102,154);"/>
            </g>
        </g>
    </g>
</svg>
